<svg width="21" height="17" viewBox="0 0 21 17" fill="none" xmlns="http://www.w3.org/2000/svg">
<path d="M17.812 2.32599C17.372 1.90599 16.85 1.57197 16.275 1.34497C15.7 1.11697 15.084 1 14.462 1C13.84 1 13.224 1.11697 12.649 1.34497C12.075 1.57197 11.552 1.90599 11.113 2.32599L10.2 3.198L9.28696 2.32599C8.39896 1.47699 7.19395 1 5.93695 1C4.68095 1 3.47595 1.47699 2.58695 2.32599C1.69895 3.17499 1.19995 4.32598 1.19995 5.52698C1.19995 6.72698 1.69895 7.87799 2.58695 8.72699L3.49995 9.599L10.2 16L16.899 9.599L17.812 8.72699C18.252 8.30699 18.601 7.80797 18.839 7.25897C19.077 6.70997 19.2 6.12098 19.2 5.52698C19.2 4.93198 19.077 4.34401 18.839 3.79401C18.601 3.24501 18.252 2.74599 17.812 2.32599Z" stroke="#909090" stroke-width="2" stroke-linecap="round" stroke-linejoin="round"/>
</svg>
