<svg width="40" height="14" viewBox="0 0 40 14" fill="none" xmlns="http://www.w3.org/2000/svg">
<path d="M3.63004 13.68V0.519989H4.52603V13.68H3.63004ZM3.98004 12.112C3.23404 12.112 2.52004 12 1.83804 11.776C1.15704 11.543 0.620027 11.244 0.228027 10.88L0.746033 9.78799C1.12003 10.115 1.59604 10.385 2.17404 10.6C2.75304 10.815 3.35504 10.922 3.98004 10.922C4.55004 10.922 5.01203 10.857 5.36603 10.726C5.72103 10.595 5.98202 10.418 6.15002 10.194C6.31802 9.961 6.40204 9.699 6.40204 9.41C6.40204 9.074 6.29004 8.80299 6.06604 8.59799C5.85204 8.39299 5.56704 8.229 5.21204 8.108C4.86704 7.977 4.48403 7.865 4.06403 7.772C3.64403 7.679 3.22004 7.57101 2.79004 7.45001C2.37004 7.31901 1.98302 7.15599 1.62802 6.95999C1.28302 6.76399 1.00302 6.503 0.788025 6.17599C0.574025 5.83999 0.466034 5.411 0.466034 4.888C0.466034 4.384 0.597032 3.92201 0.858032 3.50201C1.12903 3.07301 1.54003 2.73201 2.09003 2.48001C2.65003 2.21901 3.36002 2.08801 4.21802 2.08801C4.78802 2.08801 5.35202 2.16301 5.91202 2.31201C6.47202 2.46101 6.95804 2.67599 7.36804 2.95599L6.90604 4.07599C6.48604 3.79599 6.04302 3.595 5.57602 3.474C5.11002 3.343 4.65702 3.27802 4.21802 3.27802C3.66802 3.27802 3.21502 3.34801 2.86002 3.48801C2.50602 3.62801 2.24402 3.815 2.07602 4.048C1.91802 4.281 1.83804 4.543 1.83804 4.832C1.83804 5.177 1.94603 5.45299 2.16003 5.65799C2.38403 5.86299 2.66904 6.02701 3.01404 6.14801C3.36904 6.26901 3.75603 6.38101 4.17603 6.48401C4.59603 6.57701 5.01604 6.685 5.43604 6.806C5.86603 6.927 6.25302 7.08601 6.59802 7.28201C6.95302 7.47801 7.23803 7.73901 7.45203 8.06601C7.66703 8.39301 7.77402 8.81299 7.77402 9.32599C7.77402 9.82099 7.63904 10.283 7.36804 10.712C7.09804 11.132 6.67803 11.473 6.10803 11.734C5.54803 11.986 4.83904 12.112 3.98004 12.112ZM13.833 12V2.76001L14.435 3.418H11.621V2.20001H15.219V12H13.833ZM20.227 12.112C19.536 12.112 18.864 12.005 18.211 11.79C17.567 11.575 17.04 11.286 16.629 10.922L17.273 9.81601C17.6 10.124 18.024 10.376 18.547 10.572C19.07 10.768 19.625 10.866 20.213 10.866C20.96 10.866 21.534 10.707 21.935 10.39C22.336 10.073 22.537 9.648 22.537 9.116C22.537 8.752 22.448 8.435 22.271 8.164C22.094 7.893 21.786 7.688 21.347 7.548C20.918 7.399 20.325 7.32401 19.569 7.32401H17.343L17.861 2.20001H23.391V3.418H18.379L19.107 2.73199L18.701 6.77802L17.973 6.10599H19.863C20.843 6.10599 21.632 6.23201 22.229 6.48401C22.826 6.73601 23.26 7.086 23.531 7.534C23.802 7.973 23.937 8.481 23.937 9.06C23.937 9.62 23.802 10.133 23.531 10.6C23.26 11.057 22.85 11.426 22.299 11.706C21.758 11.977 21.067 12.112 20.227 12.112ZM27.98 2.08801C28.867 2.08801 29.613 2.27899 30.22 2.66199C30.836 3.04499 31.303 3.6 31.62 4.328C31.937 5.047 32.096 5.929 32.096 6.974C32.096 8.085 31.9 9.02299 31.508 9.78799C31.116 10.553 30.575 11.132 29.884 11.524C29.193 11.916 28.386 12.112 27.462 12.112C27.005 12.112 26.561 12.065 26.132 11.972C25.712 11.879 25.343 11.734 25.026 11.538L25.558 10.446C25.819 10.614 26.109 10.735 26.426 10.81C26.753 10.875 27.093 10.908 27.448 10.908C28.437 10.908 29.226 10.6 29.814 9.98401C30.402 9.35901 30.696 8.43501 30.696 7.21201C30.696 7.01601 30.687 6.78299 30.668 6.51199C30.649 6.24099 30.607 5.97499 30.542 5.71399L31.004 6.19C30.873 6.619 30.654 6.98301 30.346 7.28201C30.047 7.57101 29.683 7.791 29.254 7.94C28.834 8.08 28.372 8.14999 27.868 8.14999C27.224 8.14999 26.65 8.02901 26.146 7.78601C25.642 7.54301 25.245 7.20301 24.956 6.76401C24.667 6.31601 24.522 5.78901 24.522 5.18201C24.522 4.54701 24.671 4.00101 24.97 3.54401C25.278 3.07701 25.693 2.718 26.216 2.466C26.748 2.214 27.336 2.08801 27.98 2.08801ZM28.036 3.22198C27.616 3.22198 27.243 3.30099 26.916 3.45999C26.589 3.61899 26.333 3.83801 26.146 4.11801C25.969 4.39801 25.88 4.73401 25.88 5.12601C25.88 5.70501 26.081 6.16699 26.482 6.51199C26.883 6.84799 27.425 7.01599 28.106 7.01599C28.554 7.01599 28.946 6.93201 29.282 6.76401C29.627 6.59601 29.893 6.367 30.08 6.078C30.276 5.789 30.374 5.467 30.374 5.112C30.374 4.767 30.285 4.45401 30.108 4.17401C29.931 3.89401 29.669 3.66501 29.324 3.48801C28.979 3.31101 28.549 3.22198 28.036 3.22198ZM36.002 12.112C35.311 12.112 34.639 12.005 33.986 11.79C33.342 11.575 32.815 11.286 32.404 10.922L33.048 9.81601C33.375 10.124 33.799 10.376 34.322 10.572C34.845 10.768 35.405 10.866 36.002 10.866C36.73 10.866 37.295 10.712 37.696 10.404C38.107 10.087 38.312 9.662 38.312 9.13C38.312 8.617 38.116 8.20601 37.724 7.89801C37.341 7.58101 36.73 7.422 35.89 7.422H35.106V6.44199L38.018 2.858L38.214 3.418H32.852V2.20001H39.32V3.15201L36.422 6.72198L35.694 6.28799H36.156C37.341 6.28799 38.228 6.554 38.816 7.086C39.413 7.618 39.712 8.295 39.712 9.116C39.712 9.667 39.577 10.171 39.306 10.628C39.035 11.085 38.625 11.449 38.074 11.72C37.533 11.981 36.842 12.112 36.002 12.112Z" fill="#040402"/>
</svg>
