<svg width="21" height="11" viewBox="0 0 21 11" fill="none" xmlns="http://www.w3.org/2000/svg">
<path d="M15.2359 0.817993H5.30191C4.48291 0.817993 3.67691 1.02 2.95491 1.407C2.23391 1.794 1.61891 2.353 1.16591 3.035C0.711907 3.717 0.434908 4.5 0.357908 5.315C0.279908 6.131 0.405914 6.952 0.722914 7.707C1.03991 8.462 1.53891 9.127 2.17491 9.642C2.81091 10.158 3.56491 10.508 4.36891 10.662C5.17291 10.815 6.0029 10.768 6.7839 10.523C7.5659 10.279 8.27491 9.84499 8.84791 9.25999H11.6879C12.2609 9.84499 12.9699 10.279 13.7509 10.523C14.5329 10.768 15.3619 10.815 16.1659 10.662C16.9709 10.508 17.7239 10.158 18.3599 9.64301C18.9969 9.12701 19.4949 8.46299 19.8129 7.70799C20.1299 6.95299 20.2549 6.132 20.1779 5.317C20.1009 4.502 19.8239 3.718 19.3709 3.036C18.9179 2.354 18.3039 1.795 17.5819 1.408C16.8609 1.021 16.0549 0.817993 15.2359 0.817993ZM8.03291 6.157C8.03291 6.255 7.9939 6.35 7.9239 6.42C7.8539 6.49 7.7599 6.52901 7.6609 6.52901H6.0469V8.14301C6.0469 8.24201 6.00791 8.33601 5.93791 8.40601C5.86791 8.47601 5.7729 8.515 5.6739 8.515H4.9299C4.8309 8.515 4.73591 8.47601 4.66591 8.40601C4.59591 8.33601 4.55691 8.24201 4.55691 8.14301V6.52901H2.9429C2.8439 6.52901 2.7499 6.49 2.6799 6.42C2.6099 6.35 2.57091 6.255 2.57091 6.157V5.412C2.57091 5.313 2.6099 5.218 2.6799 5.14799C2.7499 5.07799 2.8439 5.039 2.9429 5.039H4.55691V3.425C4.55691 3.327 4.59591 3.232 4.66591 3.162C4.73591 3.092 4.8309 3.05299 4.9299 3.05299H5.6739C5.7729 3.05299 5.86791 3.092 5.93791 3.162C6.00791 3.232 6.0469 3.327 6.0469 3.425V5.039H7.6609C7.7599 5.039 7.8539 5.07799 7.9239 5.14799C7.9939 5.218 8.03291 5.313 8.03291 5.412V6.157ZM14.7369 8.515C14.4919 8.515 14.2519 8.443 14.0479 8.306C13.8429 8.17 13.6839 7.97599 13.5899 7.74899C13.4959 7.52199 13.4719 7.272 13.5199 7.032C13.5679 6.791 13.6859 6.57 13.8589 6.396C14.0329 6.222 14.2539 6.104 14.4949 6.056C14.7359 6.008 14.9859 6.033 15.2119 6.127C15.4389 6.221 15.6329 6.38 15.7699 6.584C15.9059 6.788 15.9789 7.028 15.9789 7.274C15.9789 7.603 15.8479 7.91899 15.6149 8.15199C15.3819 8.38499 15.0669 8.515 14.7369 8.515ZM16.7239 5.536C16.4779 5.536 16.2379 5.463 16.0339 5.327C15.8299 5.19 15.6709 4.996 15.5769 4.769C15.4829 4.543 15.4579 4.293 15.5059 4.052C15.5539 3.811 15.6719 3.59 15.8459 3.416C16.0189 3.243 16.2409 3.125 16.4809 3.077C16.7219 3.029 16.9719 3.053 17.1989 3.147C17.4259 3.241 17.6189 3.4 17.7559 3.605C17.8919 3.809 17.9649 4.04901 17.9649 4.29401C17.9649 4.62401 17.8339 4.939 17.6009 5.172C17.3689 5.405 17.0529 5.536 16.7239 5.536Z" fill="#161826"/>
</svg>
