<svg width="40" height="40" viewBox="0 0 40 40" fill="none" xmlns="http://www.w3.org/2000/svg">
<path d="M20 40C31.0457 40 40 31.0457 40 20C40 8.9543 31.0457 0 20 0C8.9543 0 0 8.9543 0 20C0 31.0457 8.9543 40 20 40Z" fill="#EEEFF4"/>
<path d="M20 30C25.5228 30 30 25.523 30 20C30 14.477 25.5228 10 20 10C14.4772 10 10 14.477 10 20C10 25.523 14.4772 30 20 30Z" stroke="#040402" stroke-width="2" stroke-linecap="round" stroke-linejoin="round"/>
<path d="M17.0901 17C17.3252 16.332 17.7892 15.768 18.4 15.409C19.0108 15.05 19.729 14.919 20.4272 15.039C21.1255 15.159 21.7589 15.522 22.2151 16.064C22.6714 16.606 22.9211 17.292 22.9201 18C22.9201 20 19.9201 21 19.9201 21" stroke="#040402" stroke-width="2" stroke-linecap="round" stroke-linejoin="round"/>
<path d="M20 25H20.01" stroke="#040402" stroke-width="2" stroke-linecap="round" stroke-linejoin="round"/>
</svg>
