<svg width="18" height="17" viewBox="0 0 18 17" fill="none" xmlns="http://www.w3.org/2000/svg">
<path d="M7.29211 16C7.66911 16 7.97411 15.68 7.97411 15.286C7.97411 14.891 7.66911 14.571 7.29211 14.571C6.91511 14.571 6.61011 14.891 6.61011 15.286C6.61011 15.68 6.91511 16 7.29211 16Z" stroke="#909090" stroke-width="2" stroke-linecap="round" stroke-linejoin="round"/>
<path d="M14.7921 16C15.1691 16 15.4741 15.68 15.4741 15.286C15.4741 14.891 15.1691 14.571 14.7921 14.571C14.4151 14.571 14.1101 14.891 14.1101 15.286C14.1101 15.68 14.4151 16 14.7921 16Z" stroke="#909090" stroke-width="2" stroke-linecap="round" stroke-linejoin="round"/>
<path d="M1.83691 1H4.56491L6.39191 10.564C6.45391 10.893 6.6249 11.189 6.8739 11.399C7.1239 11.609 7.43491 11.721 7.75491 11.714H14.3829C14.7029 11.721 15.0149 11.609 15.2639 11.399C15.5129 11.189 15.6839 10.893 15.7459 10.564L16.8369 4.57098H5.24591" stroke="#909090" stroke-width="2" stroke-linecap="round" stroke-linejoin="round"/>
</svg>
