<svg width="22" height="17" viewBox="0 0 22 17" fill="none" xmlns="http://www.w3.org/2000/svg">
<path d="M0.433105 8.5V12.75C0.433105 13.338 0.907087 13.812 1.49509 13.812H2.55811V7.438H1.49509C0.907087 7.438 0.433105 7.912 0.433105 8.5ZM15.8391 3.188H12.1201V1.062C12.1201 0.474996 11.6451 0 11.0581 0C10.4701 0 9.99509 0.474996 9.99509 1.062V3.188H6.27609C4.80909 3.188 3.62009 4.37599 3.62009 5.84399V14.875C3.62009 16.047 4.57309 17 5.74509 17H16.3701C17.5421 17 18.4951 16.047 18.4951 14.875V5.84399C18.4951 4.37599 17.3061 3.188 15.8391 3.188ZM8.93311 13.812H6.80811V12.75H8.93311V13.812ZM7.87009 9.828C7.13609 9.828 6.54208 9.234 6.54208 8.5C6.54208 7.766 7.13609 7.172 7.87009 7.172C8.60409 7.172 9.19809 7.766 9.19809 8.5C9.19809 9.234 8.60409 9.828 7.87009 9.828ZM12.1201 13.812H9.99509V12.75H12.1201V13.812ZM15.3081 13.812H13.1831V12.75H15.3081V13.812ZM14.2451 9.828C13.5111 9.828 12.9171 9.234 12.9171 8.5C12.9171 7.766 13.5111 7.172 14.2451 7.172C14.9791 7.172 15.5731 7.766 15.5731 8.5C15.5731 9.234 14.9791 9.828 14.2451 9.828ZM20.6201 7.438H19.5581V13.812H20.6201C21.2081 13.812 21.6831 13.338 21.6831 12.75V8.5C21.6831 7.912 21.2081 7.438 20.6201 7.438Z" fill="#161826"/>
</svg>
